<?xml version="1.0" encoding="utf-8"?>
<!-- Generator: Adobe Illustrator 16.0.0, SVG Export Plug-In . SVG Version: 6.00 Build 0)  -->
<!DOCTYPE svg PUBLIC "-//W3C//DTD SVG 1.1//EN" "http://www.w3.org/Graphics/SVG/1.1/DTD/svg11.dtd">
<svg version="1.1" id="Layer_1" xmlns="http://www.w3.org/2000/svg" xmlns:xlink="http://www.w3.org/1999/xlink" x="0px" y="0px"
	 width="93.002px" height="66.529px" viewBox="0 0 93.002 66.529" enable-background="new 0 0 93.002 66.529" xml:space="preserve">
<g>
	
		<image overflow="visible" opacity="0.5" width="52" height="70" xlink:href="D605128B132EA4ED.png"  transform="matrix(1 0 0 1 21.728 -0.6289)">
	</image>
	<g>
		<g>
			<g>
				<defs>
					<rect id="SVGID_1_" x="24.751" y="1.967" width="45.142" height="62.597"/>
				</defs>
				<clipPath id="SVGID_2_">
					<use xlink:href="#SVGID_1_"  overflow="visible"/>
				</clipPath>
			</g>
		</g>
		<g>
			<g>
				<defs>
					<rect id="SVGID_3_" x="24.751" y="1.967" width="45.142" height="62.597"/>
				</defs>
				<clipPath id="SVGID_4_">
					<use xlink:href="#SVGID_3_"  overflow="visible"/>
				</clipPath>
				<path clip-path="url(#SVGID_4_)" fill="#E9E9E9" d="M42.507,25.473c0.213-0.273,1.856-2.446,2.256-8.473
					c0.026-0.331,0.262-0.667,0.46-0.961c0.25-0.374,0.513-0.764,0.848-1.049c0.551-0.46,1.017-0.98,1.626-1.42
					c4.083-2.929,4.906-5.801,5.068-6.23c0.275-0.57-0.064-2.762-1.523-1.709c-0.014,0.066-4.625,3.351-4.995,3.562
					c-0.65,0.378-0.916,0.805-1.374,1.206c-0.417,0.367-0.801,0.771-1.212,1.146c0,0,1.243-2.101,1.788-2.604
					c0.245-0.225,0.595-0.333,0.884-0.511c0.336-0.207,0.661-0.427,0.982-0.65c0.401-0.281,0.804-0.562,1.192-0.862
					c0.494-0.379,0.979-0.773,1.465-1.164c0.304-0.246,0.595-0.52,0.91-0.72c1.57-0.995,2.508,0.138,2.629,1.218
					c0.18-0.051,4.926-0.548,5.721-0.637c2.287-0.246,3.98-0.492,4.443-1.803c0.117-0.337,0.078-0.578-0.189-0.826
					c-0.311-0.3-1.973-0.477-3.021-0.562c0,0-5.639-0.575-8.266-0.436c-1.412,0.073-11.114,4.456-12.613,5.714
					c-1.499,1.257-7.174,11.104-7.174,11.104c-0.273,0.328-1.68,2.152-3.52,2.152h-3.996l-0.013,10.614l3.666,0.011
					c0.679,0.024,1.352,0.14,2.028,0.22c0.771,0.23,2.229,0.047,2.795-0.061C38.873,30.509,42.123,25.968,42.507,25.473
					L42.507,25.473z M42.507,25.473"/>
				<path clip-path="url(#SVGID_4_)" fill="#E9E9E9" d="M60.464,64.228c1.051-0.085,2.711-0.262,3.021-0.561
					c0.268-0.252,0.307-0.49,0.189-0.83c-0.463-1.308-2.158-1.556-4.443-1.803c-0.795-0.086-5.541-0.583-5.721-0.634
					c-0.121,1.077-1.059,2.213-2.629,1.219c-0.314-0.2-0.606-0.475-0.91-0.72c-0.485-0.392-0.971-0.786-1.465-1.168
					c-0.389-0.297-0.791-0.58-1.192-0.86c-0.321-0.225-0.646-0.445-0.982-0.65c-0.289-0.177-0.639-0.284-0.884-0.51
					c-0.545-0.505-1.788-2.604-1.788-2.604c0.411,0.372,0.795,0.779,1.212,1.146c0.458,0.4,0.724,0.826,1.374,1.203
					c0.37,0.216,4.981,3.5,4.995,3.565c1.459,1.051,1.799-1.139,1.523-1.712c-0.162-0.429-0.984-3.298-5.068-6.229
					c-0.609-0.439-1.075-0.958-1.626-1.421c-0.338-0.284-0.598-0.674-0.848-1.049c-0.198-0.293-0.434-0.626-0.46-0.959
					c-0.399-6.027-2.043-8.198-2.256-8.472c-0.385-0.497-3.635-5.038-9.135-6.27c-0.566-0.11-2.023-0.294-2.795-0.063
					c-0.673,0.083-1.35,0.198-2.025,0.223l-3.669,0.007l0.013,10.617h3.996c1.843,0,3.246,1.822,3.52,2.152
					c0,0,5.675,9.846,7.174,11.104c1.499,1.256,11.201,5.638,12.613,5.714C54.825,64.801,60.464,64.228,60.464,64.228L60.464,64.228
					z M60.464,64.228"/>
			</g>
			<path fill="#E9E9E9" d="M65.171,32.346c-2.605,0-4.723-2.114-4.723-4.723c0-2.605,2.117-4.719,4.723-4.719
				c2.609,0,4.723,2.113,4.723,4.719C69.894,30.231,67.78,32.346,65.171,32.346L65.171,32.346z M65.171,32.346"/>
			<path fill="#E9E9E9" d="M64.04,43.619c-2.535,0-4.59-2.058-4.59-4.592c0-2.535,2.055-4.591,4.59-4.591
				c2.533,0,4.592,2.056,4.592,4.591C68.632,41.562,66.573,43.619,64.04,43.619L64.04,43.619z M64.04,43.619"/>
			<path fill="#E9E9E9" d="M42.693,38.696c0.5,0.544,0.924,1.058,1.257,1.496l0.049,0.066c0.396,0.512,1.135,1.688,1.734,3.908
				l2.782-0.403h2.681c-1.255,0.501-2.929,0.94-5.241,1.319c0.221,0.992,0.406,2.16,0.534,3.522
				c6.578-1.068,9.525-2.709,11.841-6.488c0.049-0.078,0.707-1.324,0.854-1.91l-1.152-1.144l1.162-1.109
				c0-0.003-0.002-0.008-0.002-0.01c-0.203-0.85-1.525-2.897-2.551-3.973c1.027-0.857,1.877-1.896,2.658-3.169
				c0.051-0.081,0.729-1.362,0.879-1.964l-1.188-1.176l1.199-1.142c0-0.005,0-0.008-0.002-0.013
				c-0.281-0.811-0.699-1.527-1.271-2.383c-2.406-3.573-5.586-5.133-12.42-6.171c-0.125,1.405-0.316,2.605-0.541,3.624
				c2.366,0.36,4.127,0.776,5.465,1.252h-5.769c-0.008,0-0.012,0-0.018,0c-0.577,1.993-1.261,3.08-1.636,3.565l-0.052,0.064
				c-0.333,0.44-0.756,0.954-1.259,1.5c3.246,1.448,3.885,4.218,3.98,4.615c0,0.005,0.002,0.007,0.002,0.009l-0.778,0.74
				l0.778,0.741c0,0.003,0,0.008,0,0.011C46.573,34.474,45.939,37.248,42.693,38.696L42.693,38.696z M46.85,33.325
				c0.017-1.752,1.439-3.164,3.193-3.164c1.752,0,3.178,1.412,3.194,3.164c-0.016,1.751-1.441,3.167-3.194,3.167
				C48.29,36.492,46.867,35.076,46.85,33.325L46.85,33.325z M46.85,33.325"/>
		</g>
		<g>
			<g>
				<defs>
					<rect id="SVGID_5_" x="24.751" y="1.967" width="45.142" height="62.597"/>
				</defs>
				<clipPath id="SVGID_6_">
					<use xlink:href="#SVGID_5_"  overflow="visible"/>
				</clipPath>
			</g>
		</g>
	</g>
</g>
</svg>
