<?xml version="1.0" encoding="utf-8"?>
<!-- Generator: Adobe Illustrator 16.0.0, SVG Export Plug-In . SVG Version: 6.00 Build 0)  -->
<!DOCTYPE svg PUBLIC "-//W3C//DTD SVG 1.1//EN" "http://www.w3.org/Graphics/SVG/1.1/DTD/svg11.dtd">
<svg version="1.1" id="Layer_1" xmlns="http://www.w3.org/2000/svg" xmlns:xlink="http://www.w3.org/1999/xlink" x="0px" y="0px"
	 width="93.002px" height="66.529px" viewBox="0 0 93.002 66.529" enable-background="new 0 0 93.002 66.529" xml:space="preserve">
<g>
	
		<image overflow="visible" opacity="0.5" width="55" height="62" xlink:href="8DA52CE68F950B8C.png"  transform="matrix(1 0 0 1 19.3623 1.2471)">
	</image>
	<g>
		<g>
			<g>
				<g>
					<path fill="#455560" stroke="#E9E9E9" stroke-miterlimit="10" d="M50.007,51.686c-0.912,0-1.655-0.729-1.655-1.627v-29.55
						c0-0.898,0.743-1.626,1.655-1.626h18.925c0.915,0,1.657,0.728,1.657,1.626v29.55c0,0.898-0.742,1.627-1.657,1.627H50.007z"/>
					<rect x="51.038" y="22.221" fill="#E9E9E9" width="16.976" height="27.111"/>
					<ellipse fill="#455560" cx="59.524" cy="35.776" rx="6.809" ry="5.001"/>
					<rect x="53.408" y="32.453" fill="none" width="11.1" height="7.238"/>
					
						<text transform="matrix(-4.371139e-08 1 -1 -4.371139e-08 55.1113 32.4521)" fill="#FFFFFF" font-family="'HelveticaNeue-CondensedBlack'" font-size="13.1602">$</text>
					<circle fill="#455560" cx="52.219" cy="47.853" r="2.634"/>
					<circle fill="#455560" cx="66.592" cy="47.853" r="2.634"/>
					<circle fill="#455560" cx="52.284" cy="22.528" r="2.634"/>
					<circle fill="#455560" cx="66.656" cy="22.528" r="2.634"/>
				</g>
				<path fill="#E9E9E9" d="M41.427,57.127c0.836,0.709,2.184,1.799,2.632,1.809c0.383,0.01,0.586-0.135,0.747-0.473
					c0.622-1.299-0.441-2.725-1.938-4.586c-0.52-0.646-3.64-4.496-3.734-4.666c-0.88,0.703-2.401,0.85-2.827-1.035
					c-0.083-0.379-0.097-0.793-0.139-1.195c-0.068-0.645-0.135-1.291-0.217-1.936c-0.068-0.502-0.155-1.006-0.244-1.506
					c-0.071-0.402-0.148-0.803-0.243-1.201c-0.083-0.34-0.262-0.678-0.275-1.021c-0.03-0.77,0.599-3.225,0.599-3.225
					c0.029,0.576,0.012,1.156,0.049,1.732c0.043,0.629-0.076,1.135,0.126,1.893c0.113,0.428,1.088,6.225,1.048,6.283
					c0.3,1.844,2.159,0.486,2.376-0.137c0.195-0.436,1.702-3.146,0.854-8.297c-0.126-0.77-0.087-1.492-0.153-2.238
					c-0.037-0.455,0.059-0.932,0.148-1.391c0.072-0.361,0.144-0.779,0.367-1.043c4.134-4.721,4.521-7.52,4.564-7.879
					c0.084-0.646,1.03-6.367-2.104-11.311c-0.334-0.496-1.271-1.702-2.006-2.1c-0.555-0.434-1.137-0.847-1.65-1.324l-2.698-2.688
					l-7.788,7.806l2.936,2.935c1.352,1.353,1.044,3.721,1.003,4.165c0,0-3.062,11.396-2.886,13.421
					c0.177,2.023,4.085,12.367,5.063,13.459C36.867,53.408,41.427,57.127,41.427,57.127L41.427,57.127z"/>
			</g>
			<path fill="#E9E9E9" d="M28.758,16.79c-0.999,1.067-2.27,1.502-2.836,0.971l-2.568-2.404c-0.566-0.531-0.216-1.827,0.785-2.895
				l6.786-7.248c1-1.067,2.271-1.501,2.838-0.971l2.568,2.404c0.566,0.531,0.215,1.827-0.785,2.895L28.758,16.79z"/>
		</g>
	</g>
</g>
</svg>
