<?xml version="1.0" encoding="utf-8"?>
<!-- Generator: Adobe Illustrator 16.0.0, SVG Export Plug-In . SVG Version: 6.00 Build 0)  -->
<!DOCTYPE svg PUBLIC "-//W3C//DTD SVG 1.1//EN" "http://www.w3.org/Graphics/SVG/1.1/DTD/svg11.dtd">
<svg version="1.1" id="Layer_1" xmlns="http://www.w3.org/2000/svg" xmlns:xlink="http://www.w3.org/1999/xlink" x="0px" y="0px"
	 width="93.002px" height="66.529px" viewBox="0 0 93.002 66.529" enable-background="new 0 0 93.002 66.529" xml:space="preserve">
<g>
	
		<image overflow="visible" opacity="0.5" width="53" height="49" xlink:href="17826DF334A153D2.png"  transform="matrix(1 0 0 1 20.3232 9.8604)">
	</image>
	<g>
		<g>
			<path fill="#E9E9E9" d="M27.992,53.731l5.261-5.261c4.427,2.768,10.378,2.239,14.233-1.62c4.487-4.483,4.487-11.779,0-16.268
				c-4.484-4.485-11.776-4.475-16.259,0.009c-3.86,3.854-4.423,9.774-1.615,14.244l-5.261,5.26c-1.01,1.011-1.015,2.636-0.01,3.646
				C25.351,54.753,26.981,54.742,27.992,53.731L27.992,53.731z M33.415,44.663c-3.28-3.28-3.28-8.607,0-11.883
				c3.275-3.279,8.606-3.279,11.882,0c3.276,3.271,3.276,8.603,0,11.883C42.021,47.938,36.69,47.938,33.415,44.663L33.415,44.663z
				 M33.415,44.663"/>
			<path fill="#E9E9E9" d="M56.488,35.416c1.015-0.214,1.96-0.538,2.813-0.949c0.41-0.854,0.734-1.792,0.949-2.808
				c-0.99,0.224-2.098,0.395-3.25,0.506C56.89,33.324,56.718,34.426,56.488,35.416L56.488,35.416z M56.488,35.416"/>
			<path fill="#E9E9E9" d="M51.37,33.776c0.244,0.594,0.446,1.214,0.599,1.848c0.523,0.062,1.057,0.091,1.605,0.091
				c0.623,0,1.233-0.04,1.827-0.121c0.238-0.935,0.438-2.057,0.573-3.341c-0.79,0.05-1.6,0.076-2.404,0.076
				c-0.804,0-1.611-0.026-2.404-0.076C51.223,32.791,51.294,33.298,51.37,33.776L51.37,33.776z M51.37,33.776"/>
			<path fill="#E9E9E9" d="M59.302,23.011c-0.854-0.411-1.799-0.735-2.813-0.949c0.229,0.99,0.401,2.092,0.513,3.25
				c1.152,0.111,2.26,0.284,3.25,0.508C60.036,24.81,59.712,23.865,59.302,23.011L59.302,23.011z M59.302,23.011"/>
			<path fill="#E9E9E9" d="M46.618,27.952c0.679,0.457,1.318,0.984,1.919,1.584c0.497,0.498,0.948,1.03,1.354,1.589
				c0.057,0.005,0.112,0.01,0.167,0.015c-0.05-0.786-0.079-1.592-0.079-2.4s0.029-1.616,0.079-2.402
				c-1.289,0.132-2.411,0.336-3.345,0.573C46.673,27.251,46.637,27.597,46.618,27.952L46.618,27.952z M46.618,27.952"/>
			<path fill="#E9E9E9" d="M55.401,21.884c-0.594-0.075-1.204-0.122-1.827-0.122c-0.625,0-1.235,0.047-1.829,0.122
				c-0.242,0.935-0.44,2.057-0.573,3.346c0.787-0.057,1.595-0.08,2.402-0.08c0.801,0,1.61,0.023,2.4,0.08
				C55.839,23.94,55.64,22.818,55.401,21.884L55.401,21.884z M55.401,21.884"/>
			<path fill="#E9E9E9" d="M44.012,26.596c0.087,0.034,0.172,0.066,0.259,0.102c0.446-0.219,0.966-0.417,1.539-0.589
				c0.137-0.787,0.335-1.538,0.595-2.255C45.322,24.621,44.499,25.555,44.012,26.596L44.012,26.596z M44.012,26.596"/>
			<path fill="#E9E9E9" d="M46.896,25.819c0.991-0.224,2.093-0.396,3.245-0.508c0.111-1.158,0.285-2.26,0.514-3.25
				c-1.016,0.214-1.96,0.538-2.813,0.949C47.435,23.865,47.109,24.81,46.896,25.819L46.896,25.819z M46.896,25.819"/>
			<path fill="#E9E9E9" d="M53.574,31.317c0.878,0,1.705-0.034,2.487-0.085c0.056-0.782,0.086-1.611,0.086-2.493
				c0-0.884-0.03-1.707-0.086-2.487c-0.782-0.057-1.609-0.087-2.487-0.087c-0.884,0-1.712,0.03-2.493,0.087
				c-0.057,0.78-0.088,1.604-0.088,2.487c0,0.882,0.037,1.711,0.088,2.493C51.862,31.283,52.69,31.317,53.574,31.317L53.574,31.317z
				 M53.574,31.317"/>
			<path fill="#E9E9E9" d="M44.75,23.916c0.664-0.632,1.458-1.189,2.345-1.651c0.467-0.888,1.025-1.681,1.654-2.347
				C47.063,20.843,45.672,22.235,44.75,23.916L44.75,23.916z M44.75,23.916"/>
			<path fill="#E9E9E9" d="M48.688,21.569c0.712-0.254,1.469-0.453,2.255-0.594c0.223-0.752,0.492-1.407,0.802-1.93
				C50.572,19.502,49.526,20.382,48.688,21.569L48.688,21.569z M48.688,21.569"/>
			<path fill="#E9E9E9" d="M58.393,19.918c0.635,0.666,1.188,1.459,1.654,2.347c0.89,0.462,1.681,1.02,2.348,1.651
				C61.47,22.235,60.079,20.843,58.393,19.918L58.393,19.918z M58.393,19.918"/>
			<path fill="#E9E9E9" d="M53.574,18.685c-0.482,0-1.041,0.757-1.519,2.139c0.497-0.047,1.001-0.076,1.519-0.076
				c0.513,0,1.015,0.029,1.513,0.076C54.609,19.441,54.052,18.685,53.574,18.685L53.574,18.685z M53.574,18.685"/>
			<path fill="#E9E9E9" d="M34.383,26.729v-8.628c0-0.599,0.497-1.076,1.1-1.076h2.481c0.599,0,1.076,0.478,1.076,1.076v7.642
				c1.284-0.03,2.529,0.124,3.763,0.457c1.148-4.884,5.54-8.529,10.771-8.529c6.103,0,11.068,4.966,11.068,11.069
				s-4.966,11.069-11.068,11.069c-0.432,0-0.858-0.031-1.275-0.081c-0.157,2.046-0.787,4.026-1.838,5.712H64.5
				c2.731,0,4.911-2.219,4.911-4.951V16.979c0-2.736-2.18-4.946-4.911-4.946H33.561c-2.734,0-4.915,2.21-4.915,4.946v14.43
				c0.406-0.66,0.96-1.29,1.543-1.868C31.428,28.298,32.832,27.362,34.383,26.729L34.383,26.729z M34.383,26.729"/>
			<path fill="#E9E9E9" d="M52.243,37.157c0.433,1.062,0.914,1.641,1.331,1.641c0.478,0,1.035-0.762,1.513-2.144
				c-0.498,0.052-1,0.076-1.513,0.076c-0.474,0-0.94-0.024-1.397-0.064C52.203,36.827,52.224,36.99,52.243,37.157L52.243,37.157z
				 M52.243,37.157"/>
			<path fill="#E9E9E9" d="M56.198,20.976c0.793,0.141,1.545,0.34,2.256,0.594c-0.84-1.188-1.886-2.067-3.053-2.523
				C55.706,19.568,55.975,20.224,56.198,20.976L56.198,20.976z M56.198,20.976"/>
			<path fill="#E9E9E9" d="M60.738,33.624c1.188-0.838,2.066-1.889,2.528-3.058c-0.528,0.311-1.184,0.573-1.934,0.802
				C61.195,32.155,60.997,32.912,60.738,33.624L60.738,33.624z M60.738,33.624"/>
			<path fill="#E9E9E9" d="M62.395,33.561c-0.667,0.632-1.458,1.19-2.348,1.652c-0.461,0.895-1.02,1.687-1.649,2.347
				C60.079,36.64,61.47,35.243,62.395,33.561L62.395,33.561z M62.395,33.561"/>
			<path fill="#E9E9E9" d="M55.401,38.432c1.167-0.456,2.213-1.336,3.053-2.523c-0.711,0.253-1.463,0.457-2.256,0.594
				C55.975,37.255,55.706,37.908,55.401,38.432L55.401,38.432z M55.401,38.432"/>
			<path fill="#E9E9E9" d="M60.738,23.854c0.259,0.712,0.457,1.468,0.595,2.255c0.75,0.229,1.405,0.498,1.934,0.802
				C62.81,25.742,61.926,24.697,60.738,23.854L60.738,23.854z M60.738,23.854"/>
			<path fill="#E9E9E9" d="M61.484,30.257c1.387-0.478,2.143-1.041,2.143-1.518c0-0.478-0.756-1.035-2.143-1.513
				c0.052,0.49,0.081,0.999,0.081,1.513C61.565,29.252,61.536,29.759,61.484,30.257L61.484,30.257z M61.484,30.257"/>
			<path fill="#E9E9E9" d="M57.082,26.337c0.056,0.786,0.081,1.594,0.081,2.402s-0.025,1.614-0.081,2.4
				c1.29-0.13,2.412-0.335,3.347-0.573c0.076-0.595,0.121-1.204,0.121-1.827c0-0.625-0.045-1.233-0.121-1.829
				C59.494,26.673,58.372,26.469,57.082,26.337L57.082,26.337z M57.082,26.337"/>
		</g>
	</g>
</g>
</svg>
