<?xml version="1.0" encoding="utf-8"?>
<!-- Generator: Adobe Illustrator 16.0.0, SVG Export Plug-In . SVG Version: 6.00 Build 0)  -->
<!DOCTYPE svg PUBLIC "-//W3C//DTD SVG 1.1//EN" "http://www.w3.org/Graphics/SVG/1.1/DTD/svg11.dtd">
<svg version="1.1" id="Layer_1" xmlns="http://www.w3.org/2000/svg" xmlns:xlink="http://www.w3.org/1999/xlink" x="0px" y="0px"
	 width="93.002px" height="66.529px" viewBox="0 0 93.002 66.529" enable-background="new 0 0 93.002 66.529" xml:space="preserve">
<g>
	
		<image overflow="visible" opacity="0.5" width="45" height="68" xlink:href="DC677381D94084ED.png"  transform="matrix(1 0 0 1 26.3623 0.2471)">
	</image>
	<g>
		<g>
			<path fill="#E9E9E9" d="M46.52,16.147h-9.46c0,0,3.78,9.071,3.78,17.129c0,8.051-3.78,17.123-3.78,17.123h9.598
				c0,0,4.583-8.656,4.583-17.259S46.52,16.147,46.52,16.147L46.52,16.147z M46.52,16.147"/>
			<path fill="#E9E9E9" d="M48.777,60.016l1.836,3.412l1.88-3.412h0.895c0,0,4.868,0.959,2.322-4.49
				c-0.146-0.276-0.305-0.424-0.451-0.488l12.465-22.477L50.815,3.019l-5.062,11.157h1.641c0,0,5.253,9.356,5.253,18.955
				c0,9.588-5.106,19.242-5.106,19.242h-2.867l3.3,6.159H34.588v-2.047h-4.757l1.88,2.729l-1.88,3.023h4.757v-2.211h14.189V60.016z
				 M54.216,58.532h-0.894l0.996-1.798C54.752,57.389,55.352,58.532,54.216,58.532L54.216,58.532z M48.962,57.923
				c0-0.792,0.646-1.438,1.438-1.438s1.44,0.646,1.44,1.438c0,0.802-0.648,1.438-1.44,1.438S48.962,58.725,48.962,57.923
				L48.962,57.923z M48.962,57.923"/>
		</g>
	</g>
</g>
</svg>
