<?xml version="1.0" encoding="utf-8"?>
<!-- Generator: Adobe Illustrator 16.0.0, SVG Export Plug-In . SVG Version: 6.00 Build 0)  -->
<!DOCTYPE svg PUBLIC "-//W3C//DTD SVG 1.1//EN" "http://www.w3.org/Graphics/SVG/1.1/DTD/svg11.dtd">
<svg version="1.1" id="Layer_1" xmlns="http://www.w3.org/2000/svg" xmlns:xlink="http://www.w3.org/1999/xlink" x="0px" y="0px"
	 width="93.002px" height="66.529px" viewBox="0 0 93.002 66.529" enable-background="new 0 0 93.002 66.529" xml:space="preserve">
<g>
	<g>
		
			<image overflow="visible" opacity="0.5" width="46" height="23" xlink:href="40C908F92B2C2722.png"  transform="matrix(1 0 0 1 25.3623 12.2471)">
		</image>
		<g>
			<g>
				<circle fill="#E9E9E9" cx="61.022" cy="23.866" r="7.288"/>
				<path fill="#E9E9E9" d="M41.044,15.311l-12.682-0.126v16.062l0,0h12.112l0,0c5.565,0,10.065-3.016,10.065-7.537
					c0-4.525-4.351-8.592-9.915-8.592"/>
			</g>
		</g>
	</g>
	<g>
		
			<image overflow="visible" opacity="0.5" width="47" height="24" xlink:href="40C908F92B2C2726.png"  transform="matrix(1 0 0 1 25.3623 31.2471)">
		</image>
		<g>
			<g>
				<circle fill="#95B1C1" cx="61.189" cy="42.172" r="7.287"/>
				<path fill="#95B1C1" d="M41.124,33.617l-12.762-0.126v17.756l0,0h12.278l0,0c5.565,0,10.066-3.864,10.066-8.386
					c0-4.523-4.393-9.015-9.958-9.015"/>
			</g>
		</g>
	</g>
	<g>
		
			<image overflow="visible" opacity="0.5" width="47" height="23" xlink:href="40C908F92B2C2721.png"  transform="matrix(1 0 0 1 22.3623 21.2471)">
		</image>
		<g>
			<g>
				<circle fill="#455560" stroke="#4F616B" stroke-miterlimit="10" cx="58.449" cy="32.629" r="7.028"/>
				<path fill="#455560" stroke="#4F616B" stroke-miterlimit="10" d="M38.638,24.358l-12.775-0.12v15.509l0,0h12.772h0.111
					c5.366,0,9.649-2.917,9.649-7.278s-4.496-8.291-9.861-8.291"/>
			</g>
		</g>
	</g>
	<g>
		
			<image overflow="visible" opacity="0.5" width="28" height="20" xlink:href="40C908F92B2C2723.png"  transform="matrix(1 0 0 1 22.3623 24.2471)">
		</image>
		<g>
			<rect x="29.937" y="26.71" fill="none" width="14.803" height="13.456"/>
			
				<text transform="matrix(-4.371139e-08 1 -1 -4.371139e-08 31.9072 26.7109)" fill="#E9E9E9" font-family="'HelveticaNeue-CondensedBold'" font-size="17.9741">=</text>
		</g>
	</g>
</g>
</svg>
