<?xml version="1.0" encoding="utf-8"?>
<!-- Generator: Adobe Illustrator 16.0.0, SVG Export Plug-In . SVG Version: 6.00 Build 0)  -->
<!DOCTYPE svg PUBLIC "-//W3C//DTD SVG 1.1//EN" "http://www.w3.org/Graphics/SVG/1.1/DTD/svg11.dtd">
<svg version="1.1" id="Layer_1" xmlns="http://www.w3.org/2000/svg" xmlns:xlink="http://www.w3.org/1999/xlink" x="0px" y="0px"
	 width="40px" height="36px" viewBox="0 0 40 36" enable-background="new 0 0 40 36" xml:space="preserve">
<g>
	<defs>
		<path id="SVGID_1_" d="M40,29.294C40,33.099,36.588,36,32.381,36H7.619C3.411,36,0,33.099,0,29.294V6.908C0,3.104,3.411,0,7.619,0
			h24.762C36.588,0,40,3.104,40,6.908V29.294z"/>
	</defs>
	<clipPath id="SVGID_2_">
		<use xlink:href="#SVGID_1_"  overflow="visible"/>
	</clipPath>
	<circle clip-path="url(#SVGID_2_)" fill="#F58220" cx="35.232" cy="32.804" r="13.32"/>
	<path clip-path="url(#SVGID_2_)" fill="#F58220" d="M37,15.226c0,1.197-0.496,2.168-1.5,2.168l0,0c-1.004,0-1.5-0.971-1.5-2.168
		V0.774c0-1.197,0.496-2.168,1.5-2.168l0,0c1.004,0,1.5,0.971,1.5,2.168V15.226z"/>
	<path clip-path="url(#SVGID_2_)" fill="#F58220" d="M17,33.183C17,34.187,16.186,35,15.182,35H3.818C2.814,35,2,34.187,2,33.183
		v-0.365C2,31.813,2.814,31,3.818,31h11.363C16.186,31,17,31.813,17,32.817V33.183z"/>
	<path clip-path="url(#SVGID_2_)" fill="#F58220" d="M22.118,17.547c1.278,1.278,1.739,2.89,1.029,3.6l0,0
		c-0.71,0.71-2.322,0.249-3.6-1.029L4.116,4.687C2.837,3.409,2.376,1.796,3.086,1.086l0,0c0.71-0.71,2.322-0.249,3.601,1.029
		L22.118,17.547z"/>
	<path clip-path="url(#SVGID_2_)" fill="#F58220" d="M18.092,24.189c0.774,0.318,1.093,1.329,0.711,2.259l0,0
		c-0.382,0.928-1.318,1.423-2.093,1.105l-9.348-3.839c-0.774-0.318-1.093-1.329-0.711-2.258l0,0
		c0.381-0.929,1.319-1.424,2.093-1.106L18.092,24.189z"/>
	<path clip-path="url(#SVGID_2_)" fill="#F58220" d="M29.749,16.393c0.212,0.514-0.369,1.24-1.298,1.622l0,0
		c-0.929,0.382-1.853,0.275-2.065-0.239l-2.551-6.204c-0.211-0.514,0.371-1.24,1.299-1.622l0,0c0.929-0.382,1.853-0.275,2.065,0.239
		L29.749,16.393z"/>
</g>
</svg>
