<?xml version="1.0" encoding="utf-8"?>
<!-- Generator: Adobe Illustrator 16.0.0, SVG Export Plug-In . SVG Version: 6.00 Build 0)  -->
<!DOCTYPE svg PUBLIC "-//W3C//DTD SVG 1.1//EN" "http://www.w3.org/Graphics/SVG/1.1/DTD/svg11.dtd">
<svg version="1.1" id="Layer_1" xmlns="http://www.w3.org/2000/svg" xmlns:xlink="http://www.w3.org/1999/xlink" x="0px" y="0px"
	 width="93.002px" height="66.529px" viewBox="0 0 93.002 66.529" enable-background="new 0 0 93.002 66.529" xml:space="preserve">
<g>
	
		<image overflow="visible" opacity="0.5" width="65" height="55" xlink:href="57189F7C0BE8536E.png"  transform="matrix(1 0 0 1 13.3623 7.2471)">
	</image>
	<g>
		<g>
			<g>
				<g>
					<path fill="#E9E9E9" d="M20.285,56.255c-1.1,0-2-0.9-2-2v-41.98c0-1.1,0.9-2,2-2h25.559c1.1,0,2,0.9,2,2v41.98c0,1.1-0.9,2-2,2
						H20.285z"/>
					<path fill="none" stroke="#455560" stroke-width="2" stroke-miterlimit="10" d="M20.285,56.255c-1.1,0-2-0.9-2-2v-41.98
						c0-1.1,0.9-2,2-2h25.559c1.1,0,2,0.9,2,2v41.98c0,1.1-0.9,2-2,2H20.285z"/>
				</g>
				<g>
					<path fill="#E9E9E9" d="M48.848,54.525c-0.552,0.951-1.004,0.829-1.004-0.271v-41.98c0-1.1,0.472-1.233,1.048-0.296
						l4.313,7.015c0.576,0.937,1.048,2.604,1.048,3.704v20.522c0,1.1-0.452,2.778-1.005,3.729L48.848,54.525z"/>
					<path fill="none" stroke="#455560" stroke-width="2" stroke-miterlimit="10" d="M48.848,54.525
						c-0.552,0.951-1.004,0.829-1.004-0.271v-41.98c0-1.1,0.472-1.233,1.048-0.296l4.313,7.015c0.576,0.937,1.048,2.604,1.048,3.704
						v20.522c0,1.1-0.452,2.778-1.005,3.729L48.848,54.525z"/>
				</g>
			</g>
			<g>
				<path fill="#E9E9E9" d="M67.147,46.213c-0.779,0.776-2.053,0.774-2.829-0.004L52.758,34.61
					c-0.776-0.779-0.774-2.051,0.005-2.828l6.153-6.134c0.779-0.777,2.053-0.774,2.829,0.004l11.56,11.598
					c0.776,0.779,0.774,2.053-0.005,2.829L67.147,46.213z"/>
				<path fill="none" stroke="#455560" stroke-width="2" stroke-miterlimit="10" d="M67.147,46.213
					c-0.779,0.776-2.053,0.774-2.829-0.004L52.758,34.61c-0.776-0.779-0.774-2.051,0.005-2.828l6.153-6.134
					c0.779-0.777,2.053-0.774,2.829,0.004l11.56,11.598c0.776,0.779,0.774,2.053-0.005,2.829L67.147,46.213z"/>
			</g>
			<path fill="#455560" d="M51.046,39.65c-0.29,0-0.526-0.358-0.526-0.8V27.363c0-0.441,0.236-0.798,0.526-0.798l0,0
				c0.292,0,0.527,0.356,0.527,0.798v11.487C51.573,39.292,51.338,39.65,51.046,39.65L51.046,39.65z"/>
			<circle fill="#455560" stroke="#E9E9E9" stroke-width="4" stroke-miterlimit="10" cx="33.314" cy="33.187" r="12.183"/>
			
				<rect x="31.023" y="21.668" fill="#E9E9E9" stroke="#E9E9E9" stroke-width="4" stroke-miterlimit="10" width="4.359" height="22.957"/>
			<rect x="28.96" y="23.675" fill="none" width="7.445" height="19.175"/>
			
				<text transform="matrix(-4.371139e-08 1 -1 -4.371139e-08 30.0254 23.6758)" fill="#455560" font-family="'HelveticaNeue-CondensedBold'" font-size="8.9354">VOTE</text>
		</g>
	</g>
</g>
</svg>
